<svg width="43" height="32" viewBox="0 0 43 32" fill="none" xmlns="http://www.w3.org/2000/svg">
<path d="M15.0621 1.23429L5.44038 22.3543L1.03416 32H4.57764e-05L14.6125 0H15.5117L30.1242 32H29.0901L15.0621 1.23429Z" fill="white"/>
<path d="M41.8139 32L33.8107 20.7086C32.7616 20.9219 31.5327 21.0286 30.1239 21.0286H24.0876L30.1242 32H29.225L23.6915 20.16L15.9084 0.868571L15.5117 0H30.1239C33.9906 0 37.018 0.929524 39.2061 2.78857C41.3942 4.61714 42.4883 7.19238 42.4883 10.5143C42.4883 13.0743 41.8139 15.2229 40.465 16.96C39.1162 18.6667 37.2128 19.84 34.7549 20.48L42.9379 32H41.8139ZM30.2138 20.16C33.8707 20.16 36.6733 19.3219 38.6216 17.6457C40.5999 15.9695 41.589 13.5924 41.589 10.5143C41.589 7.43619 40.5999 5.05905 38.6216 3.38286C36.6733 1.70667 33.8707 0.868571 30.2138 0.868571H15.9084L23.6915 20.16H30.2138Z" fill="white"/>
</svg>
